<svg width="162" height="162" viewBox="0 0 162 162" fill="none" xmlns="http://www.w3.org/2000/svg">
<g id="Health/Brain">
<g id="Vector">
<path fill-rule="evenodd" clip-rule="evenodd" d="M57.375 27C52.8995 27 48.6072 28.7779 45.4426 31.9426C42.2779 35.1073 40.5 39.3995 40.5 43.875V54.188C41.6153 54.0633 42.7419 54 43.875 54H47.25C50.9779 54 54 57.0221 54 60.75C54 64.4779 50.9779 67.5 47.25 67.5H43.875C39.3995 67.5 35.1073 69.2779 31.9426 72.4426C28.7779 75.6073 27 79.8995 27 84.375C27 88.8505 28.7779 93.1427 31.9426 96.3074C35.1073 99.4721 39.3995 101.25 43.875 101.25C47.6029 101.25 50.625 104.272 50.625 108C50.625 111.728 47.6029 114.75 43.875 114.75C42.7419 114.75 41.6153 114.687 40.5 114.562V118.125C40.5 122.601 42.2779 126.893 45.4426 130.057C48.6072 133.222 52.8995 135 57.375 135C61.8505 135 66.1428 133.222 69.3074 130.057C72.4721 126.893 74.25 122.601 74.25 118.125V111.375C74.25 106.899 72.4721 102.607 69.3074 99.4426C66.1427 96.2779 61.8505 94.5 57.375 94.5C53.6471 94.5 50.625 91.4779 50.625 87.75C50.625 84.0221 53.6471 81 57.375 81C63.4263 81 69.2914 82.8057 74.25 86.1187V43.875C74.25 39.3995 72.4721 35.1073 69.3074 31.9426C66.1427 28.7779 61.8505 27 57.375 27ZM81 24.783C80.3301 23.954 79.614 23.1572 78.8534 22.3966C73.1569 16.7002 65.431 13.5 57.375 13.5C49.319 13.5 41.593 16.7002 35.8966 22.3966C30.2002 28.093 27 35.819 27 43.875V59.1187C25.3573 60.2162 23.8141 61.4791 22.3966 62.8966C16.7002 68.5931 13.5 76.319 13.5 84.375C13.5 92.431 16.7002 100.157 22.3966 105.853C23.8141 107.271 25.3573 108.534 27 109.631V118.125C27 126.181 30.2002 133.907 35.8966 139.603C41.5931 145.3 49.3191 148.5 57.375 148.5C65.4309 148.5 73.1569 145.3 78.8534 139.603C79.614 138.843 80.3301 138.046 81 137.217C81.6699 138.046 82.386 138.843 83.1466 139.603C88.8431 145.3 96.5691 148.5 104.625 148.5C112.681 148.5 120.407 145.3 126.103 139.603C131.8 133.907 135 126.181 135 118.125V109.631C136.643 108.534 138.186 107.271 139.603 105.853C145.3 100.157 148.5 92.4309 148.5 84.375C148.5 76.3191 145.3 68.5931 139.603 62.8966C138.186 61.4791 136.643 60.2162 135 59.1187V43.875C135 35.8191 131.8 28.0931 126.103 22.3966C120.407 16.7002 112.681 13.5 104.625 13.5C96.569 13.5 88.843 16.7002 83.1466 22.3966C82.386 23.1572 81.6699 23.954 81 24.783ZM121.5 54.188V43.875C121.5 39.3995 119.722 35.1072 116.557 31.9426C113.393 28.7779 109.101 27 104.625 27C100.149 27 95.8573 28.7779 92.6926 31.9426C89.5279 35.1073 87.75 39.3995 87.75 43.875V86.1187C92.7086 82.8057 98.5737 81 104.625 81C108.353 81 111.375 84.0221 111.375 87.75C111.375 91.4779 108.353 94.5 104.625 94.5C100.149 94.5 95.8573 96.2779 92.6926 99.4426C89.5279 102.607 87.75 106.899 87.75 111.375V118.125C87.75 122.601 89.5279 126.893 92.6926 130.057C95.8572 133.222 100.149 135 104.625 135C109.101 135 113.393 133.222 116.557 130.057C119.722 126.893 121.5 122.601 121.5 118.125V114.562C120.385 114.687 119.258 114.75 118.125 114.75C114.397 114.75 111.375 111.728 111.375 108C111.375 104.272 114.397 101.25 118.125 101.25C122.601 101.25 126.893 99.4721 130.057 96.3074C133.222 93.1428 135 88.8505 135 84.375C135 79.8995 133.222 75.6072 130.057 72.4426C126.893 69.2779 122.601 67.5 118.125 67.5H114.75C111.022 67.5 108 64.4779 108 60.75C108 57.0221 111.022 54 114.75 54H118.125C119.258 54 120.385 54.0633 121.5 54.188Z" fill="#242424"/>
<path fill-rule="evenodd" clip-rule="evenodd" d="M57.375 27C52.8995 27 48.6072 28.7779 45.4426 31.9426C42.2779 35.1073 40.5 39.3995 40.5 43.875V54.188C41.6153 54.0633 42.7419 54 43.875 54H47.25C50.9779 54 54 57.0221 54 60.75C54 64.4779 50.9779 67.5 47.25 67.5H43.875C39.3995 67.5 35.1073 69.2779 31.9426 72.4426C28.7779 75.6073 27 79.8995 27 84.375C27 88.8505 28.7779 93.1427 31.9426 96.3074C35.1073 99.4721 39.3995 101.25 43.875 101.25C47.6029 101.25 50.625 104.272 50.625 108C50.625 111.728 47.6029 114.75 43.875 114.75C42.7419 114.75 41.6153 114.687 40.5 114.562V118.125C40.5 122.601 42.2779 126.893 45.4426 130.057C48.6072 133.222 52.8995 135 57.375 135C61.8505 135 66.1428 133.222 69.3074 130.057C72.4721 126.893 74.25 122.601 74.25 118.125V111.375C74.25 106.899 72.4721 102.607 69.3074 99.4426C66.1427 96.2779 61.8505 94.5 57.375 94.5C53.6471 94.5 50.625 91.4779 50.625 87.75C50.625 84.0221 53.6471 81 57.375 81C63.4263 81 69.2914 82.8057 74.25 86.1187V43.875C74.25 39.3995 72.4721 35.1073 69.3074 31.9426C66.1427 28.7779 61.8505 27 57.375 27ZM81 24.783C80.3301 23.954 79.614 23.1572 78.8534 22.3966C73.1569 16.7002 65.431 13.5 57.375 13.5C49.319 13.5 41.593 16.7002 35.8966 22.3966C30.2002 28.093 27 35.819 27 43.875V59.1187C25.3573 60.2162 23.8141 61.4791 22.3966 62.8966C16.7002 68.5931 13.5 76.319 13.5 84.375C13.5 92.431 16.7002 100.157 22.3966 105.853C23.8141 107.271 25.3573 108.534 27 109.631V118.125C27 126.181 30.2002 133.907 35.8966 139.603C41.5931 145.3 49.3191 148.5 57.375 148.5C65.4309 148.5 73.1569 145.3 78.8534 139.603C79.614 138.843 80.3301 138.046 81 137.217C81.6699 138.046 82.386 138.843 83.1466 139.603C88.8431 145.3 96.5691 148.5 104.625 148.5C112.681 148.5 120.407 145.3 126.103 139.603C131.8 133.907 135 126.181 135 118.125V109.631C136.643 108.534 138.186 107.271 139.603 105.853C145.3 100.157 148.5 92.4309 148.5 84.375C148.5 76.3191 145.3 68.5931 139.603 62.8966C138.186 61.4791 136.643 60.2162 135 59.1187V43.875C135 35.8191 131.8 28.0931 126.103 22.3966C120.407 16.7002 112.681 13.5 104.625 13.5C96.569 13.5 88.843 16.7002 83.1466 22.3966C82.386 23.1572 81.6699 23.954 81 24.783ZM121.5 54.188V43.875C121.5 39.3995 119.722 35.1072 116.557 31.9426C113.393 28.7779 109.101 27 104.625 27C100.149 27 95.8573 28.7779 92.6926 31.9426C89.5279 35.1073 87.75 39.3995 87.75 43.875V86.1187C92.7086 82.8057 98.5737 81 104.625 81C108.353 81 111.375 84.0221 111.375 87.75C111.375 91.4779 108.353 94.5 104.625 94.5C100.149 94.5 95.8573 96.2779 92.6926 99.4426C89.5279 102.607 87.75 106.899 87.75 111.375V118.125C87.75 122.601 89.5279 126.893 92.6926 130.057C95.8572 133.222 100.149 135 104.625 135C109.101 135 113.393 133.222 116.557 130.057C119.722 126.893 121.5 122.601 121.5 118.125V114.562C120.385 114.687 119.258 114.75 118.125 114.75C114.397 114.75 111.375 111.728 111.375 108C111.375 104.272 114.397 101.25 118.125 101.25C122.601 101.25 126.893 99.4721 130.057 96.3074C133.222 93.1428 135 88.8505 135 84.375C135 79.8995 133.222 75.6072 130.057 72.4426C126.893 69.2779 122.601 67.5 118.125 67.5H114.75C111.022 67.5 108 64.4779 108 60.75C108 57.0221 111.022 54 114.75 54H118.125C119.258 54 120.385 54.0633 121.5 54.188Z" fill="black" fill-opacity="0.2"/>
</g>
</g>
</svg>
