<svg width="156" height="156" viewBox="0 0 156 156" fill="none" xmlns="http://www.w3.org/2000/svg">
<g id="System/Lock">
<g id="Vector">
<path fill-rule="evenodd" clip-rule="evenodd" d="M78 26C72.8283 26 67.8684 28.0545 64.2114 31.7114C60.5545 35.3684 58.5 40.3283 58.5 45.5V65H97.5V45.5C97.5 40.3283 95.4455 35.3684 91.7886 31.7114C88.1316 28.0545 83.1717 26 78 26ZM110.5 65V45.5C110.5 36.8805 107.076 28.614 100.981 22.519C94.886 16.4241 86.6195 13 78 13C69.3805 13 61.114 16.4241 55.019 22.519C48.9241 28.614 45.5 36.8805 45.5 45.5V65C34.7304 65 26 73.7304 26 84.5V123.5C26 134.27 34.7304 143 45.5 143H110.5C121.27 143 130 134.27 130 123.5V84.5C130 73.7304 121.27 65 110.5 65ZM45.5 78C41.9101 78 39 80.9101 39 84.5V123.5C39 127.09 41.9101 130 45.5 130H110.5C114.09 130 117 127.09 117 123.5V84.5C117 80.9101 114.09 78 110.5 78H45.5ZM65 104C65 96.8203 70.8203 91 78 91C85.1797 91 91 96.8203 91 104C91 111.18 85.1797 117 78 117C70.8203 117 65 111.18 65 104Z" fill="#242424"/>
<path fill-rule="evenodd" clip-rule="evenodd" d="M78 26C72.8283 26 67.8684 28.0545 64.2114 31.7114C60.5545 35.3684 58.5 40.3283 58.5 45.5V65H97.5V45.5C97.5 40.3283 95.4455 35.3684 91.7886 31.7114C88.1316 28.0545 83.1717 26 78 26ZM110.5 65V45.5C110.5 36.8805 107.076 28.614 100.981 22.519C94.886 16.4241 86.6195 13 78 13C69.3805 13 61.114 16.4241 55.019 22.519C48.9241 28.614 45.5 36.8805 45.5 45.5V65C34.7304 65 26 73.7304 26 84.5V123.5C26 134.27 34.7304 143 45.5 143H110.5C121.27 143 130 134.27 130 123.5V84.5C130 73.7304 121.27 65 110.5 65ZM45.5 78C41.9101 78 39 80.9101 39 84.5V123.5C39 127.09 41.9101 130 45.5 130H110.5C114.09 130 117 127.09 117 123.5V84.5C117 80.9101 114.09 78 110.5 78H45.5ZM65 104C65 96.8203 70.8203 91 78 91C85.1797 91 91 96.8203 91 104C91 111.18 85.1797 117 78 117C70.8203 117 65 111.18 65 104Z" fill="black" fill-opacity="0.2"/>
</g>
</g>
</svg>
