<svg width="165" height="165" viewBox="0 0 165 165" fill="none" xmlns="http://www.w3.org/2000/svg">
<g id="Health/Virus">
<g id="Vector">
<path d="M116.875 82.5C116.875 101.485 101.485 116.875 82.5 116.875M116.875 82.5C116.875 63.5152 101.485 48.125 82.5 48.125M116.875 82.5H144.375M82.5 116.875C63.5152 116.875 48.125 101.485 48.125 82.5M82.5 116.875V144.375M48.125 82.5C48.125 63.5152 63.5152 48.125 82.5 48.125M48.125 82.5H20.625M82.5 48.125V20.625M75.625 20.625H89.375M106.809 58.1899L126.252 38.7474M121.392 33.8866L131.113 43.6078M144.375 75.625V89.375M106.803 106.81L126.252 126.253M131.113 121.392L121.392 131.113M89.375 144.375H75.625M58.1968 106.81L38.7474 126.253M43.6077 131.113L33.8933 121.392M20.625 89.375V75.625M58.1899 58.1899L38.7474 38.7474M33.8866 43.6085L43.6078 33.8941" stroke="#242424" stroke-width="10" stroke-linecap="round" stroke-linejoin="round"/>
<path d="M116.875 82.5C116.875 101.485 101.485 116.875 82.5 116.875M116.875 82.5C116.875 63.5152 101.485 48.125 82.5 48.125M116.875 82.5H144.375M82.5 116.875C63.5152 116.875 48.125 101.485 48.125 82.5M82.5 116.875V144.375M48.125 82.5C48.125 63.5152 63.5152 48.125 82.5 48.125M48.125 82.5H20.625M82.5 48.125V20.625M75.625 20.625H89.375M106.809 58.1899L126.252 38.7474M121.392 33.8866L131.113 43.6078M144.375 75.625V89.375M106.803 106.81L126.252 126.253M131.113 121.392L121.392 131.113M89.375 144.375H75.625M58.1968 106.81L38.7474 126.253M43.6077 131.113L33.8933 121.392M20.625 89.375V75.625M58.1899 58.1899L38.7474 38.7474M33.8866 43.6085L43.6078 33.8941" stroke="black" stroke-opacity="0.2" stroke-width="10" stroke-linecap="round" stroke-linejoin="round"/>
</g>
</g>
</svg>
